<svg xmlns="http://www.w3.org/2000/svg" width="534px" height="609px" version="1.1"><defs/><g transform="translate(0.5,0.5)"><rect x="22" y="32" width="230" height="350" rx="15" ry="15" fill="#ffffff" stroke="#000000" stroke-width="2"/><image x="2" y="2" width="80" height="80" a0:href="https://www.draw.io/img/lib/clip_art/computers/Monitor_Tower_128x128.png" xmlns:a0="http://www.w3.org/1999/xlink"/><rect x="42" y="427" width="470" height="180" rx="12" ry="12" fill="#ffffff" stroke="#000000" stroke-width="2"/><image x="22" y="392" width="80" height="80" a1:href="https://www.draw.io/img/lib/clip_art/computers/Server_128x128.png" xmlns:a1="http://www.w3.org/1999/xlink"/><rect x="88" y="13" width="114" height="20" fill="none" stroke="none"/><g fill="#000000" font-family="Helvetica" font-weight="bold" font-size="12px"><text x="90" y="31">Machine de dev A</text></g><rect x="110" y="408" width="94" height="20" fill="none" stroke="none"/><g fill="#000000" font-family="Helvetica" font-weight="bold" font-size="12px"><text x="112" y="426">CVS (poppo)</text></g><path d="M 52 82 C 52 77 56 73 61 73 L 213 73 C 216 73 218 74 219 76 C 221 77 222 80 222 82 L 222 172 C 195 162 164 162 137 172 C 110 183 79 183 52 172 Z" fill="#ffffff" stroke="#999999" stroke-miterlimit="10"/><g fill="#000000" font-family="Helvetica" text-anchor="middle" font-size="12px"><text x="137" y="132">Répertoire de travail</text></g><path d="M 168 477 C 168 474 170 472 174 470 C 177 468 182 467 187 467 L 434 467 C 439 467 443 468 447 470 C 450 472 452 474 452 477 L 452 554 C 407 544 356 544 310 554 C 265 565 214 565 168 554 Z" fill="#ffffff" stroke="#999999" stroke-miterlimit="10"/><path d="M 150 486 C 150 481 158 477 168 477 L 416 477 C 420 477 425 478 428 480 C 432 481 434 484 434 486 L 434 564 C 388 554 337 554 292 564 C 247 574 196 574 150 564 Z" fill="#ffffff" stroke="#999999" stroke-miterlimit="10"/><path d="M 132 496 C 132 494 134 491 137 489 C 141 487 145 486 150 486 L 397 486 C 407 486 416 491 416 496 L 416 574 C 370 564 319 564 274 574 C 228 584 177 584 132 574 Z" fill="#ffffff" stroke="#999999" stroke-miterlimit="10"/><g fill="#000000" font-family="Helvetica" text-anchor="middle" font-size="12px"><text x="292" y="530">Dépôt partagé</text></g><path d="M 27 312 L 239 312 L 239 292 L 377 327 L 239 362 L 239 342 L 27 342 Z" fill="#ffffff" stroke="#9933ff" stroke-miterlimit="10" transform="rotate(90,202,327)"/><g fill="#9933FF" font-family="Courier New" font-weight="bold" text-anchor="middle" font-size="12px"><text x="202" y="331">commit</text></g><rect x="302" y="33" width="230" height="350" rx="15" ry="15" fill="#ffffff" stroke="#000000" stroke-width="2"/><image x="282" y="3" width="80" height="80" a2:href="https://www.draw.io/img/lib/clip_art/computers/Monitor_Tower_128x128.png" xmlns:a2="http://www.w3.org/1999/xlink"/><rect x="368" y="14" width="114" height="20" fill="none" stroke="none"/><g fill="#000000" font-family="Helvetica" font-weight="bold" font-size="12px"><text x="370" y="32">Machine de dev B</text></g><path d="M 332 83 C 332 81 333 78 335 77 C 336 75 338 74 341 74 L 493 74 C 496 74 498 75 499 77 C 501 78 502 81 502 83 L 502 173 C 475 163 444 163 417 173 C 390 184 359 184 332 173 Z" fill="#ffffff" stroke="#999999" stroke-miterlimit="10"/><g fill="#000000" font-family="Helvetica" text-anchor="middle" font-size="12px"><text x="417" y="133">Répertoire de travail</text></g><path d="M 360 502 L 360 290 L 340 290 L 375 152 L 410 290 L 390 290 L 390 502 Z" fill="#ffffff" stroke="#006600" stroke-miterlimit="10"/><g fill="#006600" font-family="Courier New" font-weight="bold" text-anchor="middle" font-size="12px"><text x="375" y="331">update</text></g></g></svg>